<?xml version="1.0" encoding="UTF-8" standalone="no"?>
<!DOCTYPE svg PUBLIC "-//W3C//DTD SVG 1.1//EN" "http://www.w3.org/Graphics/SVG/1.1/DTD/svg11.dtd">
<svg width="100%" height="100%" viewBox="0 0 225 137" version="1.1" xmlns="http://www.w3.org/2000/svg" xmlns:xlink="http://www.w3.org/1999/xlink" xml:space="preserve" xmlns:serif="http://www.serif.com/" style="fill-rule:evenodd;clip-rule:evenodd;stroke-linecap:round;stroke-linejoin:round;stroke-miterlimit:1.5;">
    <g transform="matrix(1,0,0,1,-15.5,-63.5)">
        <path d="M22.831,73.169C19.021,76.979 18.915,83.123 22.592,87.063C42.216,108.088 100.162,170.174 120.689,192.167C122.581,194.194 125.228,195.344 128,195.344C130.772,195.344 133.419,194.194 135.311,192.167C155.838,170.174 213.784,108.088 233.408,87.063C237.085,83.123 236.979,76.979 233.169,73.169C232.57,72.57 231.962,71.962 231.36,71.36C229.435,69.435 226.81,68.378 224.089,68.433C221.368,68.487 218.786,69.648 216.94,71.648C199.279,90.781 153.314,140.577 135.348,160.04C133.455,162.09 130.791,163.257 128,163.257C125.209,163.257 122.545,162.09 120.652,160.04C102.686,140.577 56.721,90.781 39.06,71.648C37.214,69.648 34.632,68.487 31.911,68.433C29.19,68.378 26.565,69.435 24.64,71.36C24.038,71.962 23.43,72.57 22.831,73.169Z" style="fill:white;stroke:white;stroke-width:1px;"/>
    </g>
</svg>
